<?xml version="1.0" encoding="UTF-8"?>
<svg xmlns="http://www.w3.org/2000/svg" data-name="Layer 1" viewBox="0 0 413.32 68.85">
  <path d="M411.96 19.87a14 14 0 00-12-7c-4.5 0-8.46 1.85-8.46 6.63 0 4 5 6.75 10.17 10.09 5.66 3.55 11.53 7.91 11.53 15.49 0 9.9-9.62 16-20.74 16a40.91 40.91 0 01-14.74-2.94l.89-13.17c2.59 5.26 7.44 9.42 14.6 9.42 5.52 0 9.62-2.66 9.62-7.3 0-4-3.35-6.41-7.44-8.87-8.6-5.18-14-9.35-14-16.85 0-11.26 9.41-15 19.17-15 5.66 0 9.21 1 12.82 1l-1.36 12.49m-47.69 11.8c-1.23 2-2.79 4.84-3.75 6.89a75.48 75.48 0 00-1.23 14.8c0 2.39.41 5.6 1.5 6.69h-14.32c2.52-2.38 3.55-17.05 3.42-21.69a112.06 112.06 0 00-8.47-20.68c-2.52-4.84-5.45-9.41-7.3-10.3 3.21-.27 7.3-.47 9.28-.47 3.55 0 4.51.47 6.69 5.25 3.41 7.71 5.93 13.5 7.43 17.81 3.62-5.67 6.15-9.55 9.42-14.88a8.82 8.82 0 001.5-4.5 5.51 5.51 0 00-.75-3.21h14.12c-2.72.62-15 19.93-17.6 24.29m-49.6-11.94l-8.46 18.35h13.78l-5.32-18.35m16.58 40.8c-4.5 0-4.84-.14-8.46-12.55l-1.29-4.57c-2.18 1-6.08 1.5-12.28 1.5h-6.28l-1.09 2.32c-1.57 3.48-3.69 7.57-3.69 10.44a8.08 8.08 0 00.35 2.38h-37.26c2.12-2.38 2.8-10.09 3.83-24.08l.2-3.34c.55-8 1-14.13.89-18.42-.07-3.55-.41-5.8-1.37-6.82h14.4c-2.05 1.57-2.8 10-3.75 24l-.28 3.34c-.34 5.19-1 10.51-1 15.7 0 2.38 1 2.93 3.42 2.93 8.72 0 10.91-.21 14.86-2.87 2.46-4.5 5.26-10.17 8-16l3.69-7.85c3.48-7.36 6.89-14.87 6.89-16.3a7.39 7.39 0 00-.68-2.94h11.42s4.64 17.2 5.66 20.88l2.25 8.32c3.89 14 6.35 20.81 9.63 23.47-2.74.34-6.63.48-8.06.48m-92.85.55c-13.58 0-21.42-11.19-21.42-23.74 0-17.47 9.48-31 27.56-31 5.66 0 8.32 1 12.89 1l-1.36 13.44c-2.59-4.71-6.82-7.91-12.48-7.91-11.26 0-15.83 12.15-15.83 22.58 0 11.33 6.34 17.53 14.8 17.53 4.57 0 8.6-1.23 15.35-5.93-2.73 8.73-9.07 14-19.51 14M191.37 13.8c-1.3 0-2.87 0-4.1.13-.4 2.25-.75 6.14-1.23 12.42l-.27 3.68a12.73 12.73 0 002.39.21c6.55 0 11.05-4 11.05-10 0-4.1-2.86-6.48-7.84-6.48m19 48.59c-3.89 0-4.84-.62-6.14-2.4l-14.75-20.5c-1.16-1.57-2-2.87-3.88-2.87h-.35l-.27 4c-.34 5.39-.54 9.69-.54 12.89.06 3.55.47 5.73 1.43 6.62h-14.26c2-1.84 2.79-8 4-24.08l.2-3.35c.55-7.91 1-14 .89-18.35-.07-3.75-.48-6.07-1.5-6.89h19.44c6.34 0 15.08 1.1 15.08 11.4 0 8.45-5.67 13.1-12.69 15.28a32.59 32.59 0 012.66 3.14l10.68 14.11c6.69 8.8 7.23 9.21 9.62 10.44-3 .34-7 .48-9.62.48m-66.45-42.58l-8.55 18.39h13.85l-5.32-18.35m16.58 40.8c-4.5 0-4.84-.14-8.46-12.55l-1.29-4.57c-2.19 1-6.08 1.5-12.29 1.5h-6.27l-1.1 2.32c-1.09 2.45-3.75 7.5-3.68 10.44a8.71 8.71 0 00.34 2.38h-12.61c3.62-3.61 8.19-12 14.53-25.58l3.69-7.84c3.34-7.1 6.89-15.15 6.89-16.31a7.39 7.39 0 00-.68-2.94h11.46s3 11.4 5.66 20.88l2.25 8.33c3.89 14 6.35 20.8 9.62 23.46-2.93.34-6.62.48-8.05.48m-65-46.8a35 35 0 00-3.69.14c-.54 3.68-.88 7.23-1.15 11.11 0 0-.21 3.35-.21 3.21h1.36c6.69 0 12.83-2.32 12.83-8.46 0-3.55-2.93-6-9.14-6M93.78 34.6h-3.75l-.54 7.78c-.27 3.41-.41 6.28-.48 9.69 0 .48 1.5 1.5 5 1.5 7.37 0 12.22-3.68 12.22-9.76 0-6.75-5.53-9.21-12.49-9.21m.82 25.45H76.23c2.32-2.05 2.94-10 4-24.08l.2-3.28c.55-8 1-14.12.89-18.42-.07-3.68-.47-6.07-1.5-6.89h20.55c4.92 0 14.74.28 14.74 10.51 0 6.82-6.34 11.05-12.14 12.55 8.18.82 14.32 4.78 14.32 13.24 0 9.14-8.59 16.37-22.65 16.37M29.76.05c-1.82 0-2.2.32-2.79 1h-.73a8.47 8.47 0 00-4.75 1.23c-1.48 1-2.19 2.72-1.4 4 0 0 .53-.78 2.28-.78.24 0 .52 0 .81.05 2.41.28 4.19 1.56 4 4.91s-1.45 7.09-6.59 7.13c0 0-.67 0-1.37-.06a3.88 3.88 0 01-3.15-1.77 3.13 3.13 0 002.09-3.18c0-1.79-1.58-3.42-3.82-4.08a8.35 8.35 0 00-2.38-.32 9.55 9.55 0 00-7.62 3.72C-.2 17.9-.57 26.63.54 34.76s6.28 15.69 6.43 15.9.21.22.32.22a.24.24 0 00.18-.08 27.37 27.37 0 005.27-7.1c1 .78.46 2.43-.07 4.19a26.48 26.48 0 01-2.2 5c-.43.76-1 1.63-.23 2.09a.56.56 0 00.3.08c1 0 3.35-1.75 6-5.25a40.45 40.45 0 004.43-7.43c.22 0 .58.41.52 1.4a25 25 0 01-3.09 8.24 46.8 46.8 0 01-4.3 6.16c-.24.29 0 .47.11.59a51.16 51.16 0 009 6.31c6.21 3.3 9 3.9 9 3.9s2.74-.58 9-3.89a47.6 47.6 0 009-6.34.35.35 0 00.12-.58 47.45 47.45 0 01-4.28-6.15 24.57 24.57 0 01-3.1-8.23c0-1 .3-1.33.5-1.42a40.45 40.45 0 004.45 7.44c2.64 3.5 5 5.24 6 5.24a.63.63 0 00.32-.07c.75-.46.19-1.35-.25-2.09a29.83 29.83 0 01-2.2-5c-.51-1.78-1.05-3.43-.05-4.19a26.73 26.73 0 005.26 7.09.28.28 0 00.19.09.41.41 0 00.3-.21c.16-.22 5.34-7.75 6.44-15.91s.75-16.87-3.8-22.86a9.56 9.56 0 00-7.64-3.74 8.52 8.52 0 00-2.36.32c-2.26.68-3.81 2.33-3.79 4.09a3.11 3.11 0 002.08 3.19 3.87 3.87 0 01-3.18 1.76 10.4 10.4 0 01-1.34.09A5.47 5.47 0 0139 14.97c-1.41-2-1.36-6-1.44-7.37s-.36-4.45-1.8-5.7A8 8 0 0030.39.09h-.44" fill="#009FE3"></path>
</svg>
