<?xml version="1.0" encoding="UTF-8"?>
<svg xmlns="http://www.w3.org/2000/svg" data-name="Layer 1" viewBox="0 0 400 105.11">
  <path d="M1.29 86.47l18.05 18 25.35.32 12.67.15h.85A58.93 58.93 0 0078.42 102a38.24 38.24 0 0014.68-8.73 36.28 36.28 0 008.83-14 53.76 53.76 0 002.77-18.19c0-1.37-.09-2.74-.2-4.1-.08-1.09-.2-2.18-.35-3.26a42.46 42.46 0 00-8.45-20.63c-3.47-4.41-8.07-7.74-11.86-11.85s-7.65-8.75-12.41-12.07C62.46 2.94 51.38.85 40.77.72L.2.2 1 61zm89.3-56C98 37.25 101.9 46.77 102.48 59l.07 2a51 51 0 01-2.66 17.5 34 34 0 01-8.3 13.2 36.18 36.18 0 01-13.92 8.3 55.38 55.38 0 01-18.19 2.76h-1.3l-15.67-.19-21.62-.28-.09-7.52 14.12.23 15 .2h.51a56.34 56.34 0 0019.21-2.75A37 37 0 0083.83 84a34.43 34.43 0 008.49-13.48l.55-1.68a51.21 51.21 0 002.15-16Q94.84 38.72 89 29.09zm2.91 22.3a49.23 49.23 0 01-2.61 17.17l-.55 1.43a32.93 32.93 0 01-7.57 11.49 33.67 33.67 0 01-10.51 6.9c-1 .44-2 .85-3.12 1.22a54.74 54.74 0 01-18.74 2.69h-.5l-16.52-.23-12.6-.18-.08-6.67 5.91.07 14.92.2A58.33 58.33 0 0061.27 84a36.86 36.86 0 0014.18-8.48 34 34 0 008.49-13.42 50.51 50.51 0 002.7-17.7l-.07-2.17v-.68l-.16-2.16-.1-1-.31-2.26-.24-1.43-.35-1.76-.14-.61-.48-1.81-.15-.59-.55-1.69-.76-2a25 25 0 013.35 2.06c4.4 6.4 6.7 14.48 6.82 24.47zM20.68 85.06l-.06-4.4-.77-60.79 37.78.47c9.29.12 17.13 1.74 23.55 4.79a36.45 36.45 0 011.47 3.67l.22.67.46 1.53.16.57.17.72.34 1.36c.21.94.39 1.92.52 2.92l.31 2.35.17 2.29.06 1.29.07 1.88a48.89 48.89 0 01-2.63 17.19 32.74 32.74 0 01-8.12 12.91 34.61 34.61 0 01-11.61 7.38l-2 .74a56.81 56.81 0 01-19.22 2.73l-16.44-.21zm57.44-65.24h.06l1.51.93 1.39.88 2.28 2.23 1.34 1.41-2.11-1.11-.27-.14-.25-.17-.84-.39-1-.44-.09-.02c-6.32-2.67-13.86-4.06-22.53-4.17l-39.29-.5.77 60.81.07 5.9v1.52l.1 7.42v.76l.08 6.76-6.05-6.09-.75-.75v-.76l-.27-21.56-.77-60.8 37.84.46c11.94.15 21.48 2.79 28.77 7.81zM40.8 2.87c14.27.18 25.27 3.87 33.06 10.93a40.92 40.92 0 013.33 3.64q-11-6.74-27.87-7L10 10l.77 60.8.23 22.33-7.58-7.53-.28-22.41-.77-60.81zM1.29 86.47l-.14.14 18.1 18 25.44.32 12.67.16h1.9a58.46 58.46 0 0019.23-2.91 38.35 38.35 0 0014.75-8.78 36.38 36.38 0 008.88-14.1 53.43 53.43 0 002.78-17.45v-.8c0-1.37-.09-2.75-.19-4.12q-.13-1.64-.36-3.27A42.81 42.81 0 0095.86 33c-3.49-4.48-8.1-7.81-11.86-11.9S76.34 12.34 71.54 9C62.53 2.74 51.4.65 40.77.52L0 0l.77 61 .32 25.53.06.06.14-.14h.21L1.18 61 .41.41l40.35.51c10.59.13 21.64 2.22 30.55 8.42 4.74 3.29 8.47 7.79 12.38 12s8.41 7.46 11.85 11.84A42.38 42.38 0 01104 53.73c.15 1.08.26 2.17.35 3.25.11 1.37.18 2.73.19 4.1v.79a52.94 52.94 0 01-2.76 17.32A36.18 36.18 0 0193 93.13a38 38 0 01-14.6 8.68 57.84 57.84 0 01-19.1 2.9h-1.9l-12.67-.16-25.27-.31-18-17.89-.15.14zm89.3-56l-.14.15c7.34 6.74 11.25 16.19 11.83 28.38l.07 2v.73a50.57 50.57 0 01-2.65 16.7 33.78 33.78 0 01-8.25 13.13 36.09 36.09 0 01-13.84 8.23 55.55 55.55 0 01-18.13 2.75h-1.3l-15.67-.19-21.42-.28L21 95l13.9.2 15 .21h1.46a56 56 0 0018.33-2.77A37.34 37.34 0 0084 84.09a34.77 34.77 0 008.53-13.55l.55-1.69a51.32 51.32 0 002.15-15.25v-.81c-.12-9.41-2.13-17.34-6.08-23.8l-.18.1-.13.15 1.62 1.4.14-.15.13-.15-1.62-1.4-.31.26c3.91 6.39 5.91 14.24 6 23.6v.8a50.8 50.8 0 01-2.14 15.13l-.55 1.68a34.29 34.29 0 01-8.42 13.39 36.68 36.68 0 01-14.11 8.43A55.62 55.62 0 0151.36 95h-1.45l-15-.2-14.31-.24.09 7.72v.2l21.81.28 15.68.2h1.3a56.12 56.12 0 0018.26-2.77 36.43 36.43 0 0014-8.33 34.18 34.18 0 008.35-13.29 50.83 50.83 0 002.68-16.76v-.74l-.07-2c-.58-12.3-4.52-21.88-12-28.68zm2.91 22.3h-.2v.77a48.46 48.46 0 01-2.6 16.33l-.55 1.43a32.9 32.9 0 01-7.52 11.42l.14.14v-.2h-.09l-.06.06a33.75 33.75 0 01-10.45 6.86c-1 .43-2 .84-3.1 1.2a53.73 53.73 0 01-17.73 2.69H49.9l-16.52-.22-12.38-.2-.08-6.27 5.7.07 14.92.2h1a57.58 57.58 0 0018.84-2.83l-.11-.22h-.2v.3l.26-.09a37 37 0 0014.27-8.5 34.23 34.23 0 008.53-13.55 50.07 50.07 0 002.71-16.93v-.83l-.07-2.18v-.68l-.17-2.16-.1-1-.31-2.3-.24-1.43-.36-1.77-.13-.61-.46-1.8-.16-.59-.55-1.7-.76-2-.19.07-.09.18a25.62 25.62 0 013.32 2l.12-.16-.17.12c4.4 6.35 6.7 14.39 6.82 24.36h.41c-.13-10-2.44-18.15-6.9-24.58a25.48 25.48 0 00-3.38-2.08l-.46-.24.94 2.49.47 1.66.15.58.48 1.81.13.6.35 1.76.24 1.42.31 2.29.1 1 .16 2.15v.68l.07 2.17v.82A49.71 49.71 0 0183.75 62a33.71 33.71 0 01-8.44 13.39 36.4 36.4 0 01-14.1 8.43l.06.2h.2v-.31l-.27.1a57.17 57.17 0 01-18.7 2.81h-1l-14.92-.19-5.91-.07h-.21l.09 6.88v.2l12.8.18 16.52.23h1.44a54.31 54.31 0 0017.86-2.7c1.08-.37 2.12-.79 3.13-1.22A33.88 33.88 0 0082.9 83l-.14-.15v.2h.1a33.38 33.38 0 007.62-11.57l.59-1.48a48.83 48.83 0 002.64-16.46v-.78zM20.68 85.06h.2l-.05-4.4-.77-60.59 37.57.47c9.26.12 17.08 1.74 23.46 4.77l.09-.18-.19.08a34.74 34.74 0 011.47 3.65l.22.67.46 1.55.15.56.17.72.32 1.34c.21.93.39 1.9.52 2.89l.31 2.41.18 2.28.06 1.28.07 1.88v.77a48.41 48.41 0 01-2.61 16.29 32.65 32.65 0 01-8.08 12.84 34.24 34.24 0 01-11.54 7.33l-2 .74.07.19v-.21a55.75 55.75 0 01-18.2 2.72h-1l-16.43-.21-4.4-.06v.4l4.39.06 16.43.21h1a56.36 56.36 0 0018.25-2.72l-.07-.19v.2h.05l2.06-.75a34.92 34.92 0 0011.68-7.42 33.07 33.07 0 008.17-13 48.68 48.68 0 002.64-16.47v-.78l-.07-1.89-.06-1.29-.2-2.3-.31-2.36c-.13-1-.31-2-.52-2.93l-.32-1.34-.18-.73-.14-.54-.46-1.55-.23-.67A34.79 34.79 0 0081.36 25v-.06h-.07c-6.45-3.07-14.32-4.69-23.63-4.81l-38-.47.77 61 .06 4.39v.2h.2zm57.44-65.24h-.21v.11l.16.1 1.51.92 1.39.88.28-.28-.17.11-.09.18.09-.18-.14.15 2.28 2.22.5.53-1-.55-.26-.14-.1.18.15-.14-.24-.16-.86-.4-1-.44h-.08c-6.35-2.69-13.91-4.08-22.6-4.19l-39.5-.5.77 61V86.52l.1 7.42v.76l.07 6.27-5.69-5.74-.7-.69v-.64l-.27-21.57-.77-60.59 37.62.47C61.25 12.36 70.74 15 78 20l.11-.16L78 20l.15-.14.14-.14c-7.34-5-16.92-7.69-28.89-7.84l-38-.48.77 61 .27 21.57v.84l.81.8 6.05 6.09.35.36-.09-7.26V94l-.09-7.42v-1.52l-.08-5.91-.76-60.59 38.98.44c8.65.11 16.16 1.5 22.45 4.16l.08-.19-.1.18.09.05 1 .45.82.38.23.16.1-.18-.14.15.29.16 2.12 1.11.24-.32-1.34-1.41-2.29-2.23-.68-.34.43.65.17-.12.11-.17-1.39-.88-1.51-.93h-.07l-.1.17h.2v-.08l-.06-.06zM40.8 2.87v.2C55 3.25 66 6.93 73.72 14A41.76 41.76 0 0177 17.56l.16-.12.1-.18q-11.07-6.77-28-7L10 9.8h-.22l.76 61 .28 21.84-7.2-7.12-.28-22.33-.76-60.6 38.22.48v-.41L2.17 2.18l.77 61 .28 22.5 8 7.93L11 70.79 10.18 10H10v.2l39.33.49q16.83.22 27.76 6.92l.27-.3A42.86 42.86 0 0074 13.66Q62.24 3 40.8 2.66zM67.24 66a8.42 8.42 0 002.14-3.34 13 13 0 00.66-4.36A10.25 10.25 0 0067 50.51c-2-1.87-4.84-2.74-8.31-2.79l-9.84-.12.27 21.09 9.75.12a13.72 13.72 0 004.85-.71 9.38 9.38 0 003.52-2.1zm-1.06-1.11l-2.13 1.44-.79.33h-.08a12.56 12.56 0 01-4.33.61l-8.23-.1-.23-18.06 8.32.11c3.24 0 5.66.84 7.27 2.37 1.66 1.53 2.52 3.62 2.57 6.59a11.1 11.1 0 01-.55 3.89 7 7 0 01-1.76 2.79zM67.24 66l.11.17a8.68 8.68 0 002.19-3.41l-.19-.07.15.14.06-.06v-.1h-.2l.19.07a13.27 13.27 0 00.67-4.24v-.19a10.38 10.38 0 00-3.14-7.87c-2-1.91-4.94-2.8-8.44-2.84l-9.84-.12h-.2l.27 21.5 9.94.12h.23a13.73 13.73 0 004.7-.72 9.38 9.38 0 003.59-2.18l-.09-.2.11.17-.11-.17-.14-.14a9.17 9.17 0 01-3.45 2.08 13.33 13.33 0 01-4.56.69h-.22l-9.55-.11-.27-20.72 9.63.12c3.45 0 6.25.91 8.18 2.74a10 10 0 013 7.58v.18a13 13 0 01-.65 4.11v.08h.2l-.15-.15a8.14 8.14 0 01-2.09 3.26l.14.15-.11-.17zm-1.06-1.11v-.2H66v.12l-2 1.36-.77.32h-.07a12.2 12.2 0 01-4 .6h-.22l-8-.1-.34-17.65 8.1.1c3.22 0 5.58.84 7.14 2.31l.14-.14h-.2v.09l.06.06c1.62 1.49 2.46 3.51 2.51 6.45v.18a11 11 0 01-.58 3.6 6.77 6.77 0 01-1.71 2.72l.14.14v-.2.41h.1l.06-.06a7.3 7.3 0 001.81-2.87 11.33 11.33 0 00.6-3.74v-.19c0-3-.93-5.17-2.63-6.74l-.14.15h.2v-.09l-.06-.06C64.46 49.89 62 49.08 58.71 49l-8.31-.11h-.21l.23 18.46 8.43.1h.22a12.61 12.61 0 004.18-.62h.08l.79-.33 2.15-1.45.09-.06v-.13h-.2v.21zm76.23 9.61c-7.82 0-13.36-5.76-13.36-13.58s5.61-13.79 13.36-13.79c8 0 13.43 6.27 13.43 13.79s-5.39 13.55-13.43 13.55zm13.72 3.69h5.17V23.56h-5.17v25.9a15.61 15.61 0 00-13.57-7c-10.4 0-18.59 7.82-18.59 18.37s8 18.3 18.51 18.3c5.76 0 10.56-2.36 13.65-6.94zm17.66 0H179v-35h-5.16zm2.58-41.83a3.69 3.69 0 000-7.38 3.56 3.56 0 00-3.62 3.69 3.6 3.6 0 003.62 3.66zM207 74.47c-7.82 0-13.36-5.76-13.36-13.58S199.22 47.1 207 47.1c8 0 13.42 6.27 13.42 13.79S215 74.47 207 74.47zm13.72-2.29v3.47c0 12.54-6.57 16.52-13.8 16.52-5.53 0-9-2.36-11.06-5.9l-4.72 2c3.39 5.46 9.06 8.56 16.07 8.56 9.38 0 18.67-5.61 18.67-21.91V43.11h-5.16v6.35a15.64 15.64 0 00-13.58-7c-10.4 0-18.59 7.82-18.59 18.37s8 18.3 18.51 18.3a15.79 15.79 0 0013.63-6.95zm17.65 6h5.17v-35h-5.17zm2.58-41.83a3.69 3.69 0 100-7.38 3.55 3.55 0 00-3.61 3.69 3.6 3.6 0 003.58 3.67zm153.74 21.74h-25.31c1.18-6.12 6-11 12.69-11s11.58 4.91 12.62 11zm-25.39 4.65H400v-1.92a18 18 0 10-35.93 0 18.35 18.35 0 0018.3 18.3 18 18 0 0014.63-7.6l-3.83-2.73a13.5 13.5 0 01-10.92 5.68 13.23 13.23 0 01-12.95-11.73zm-9.41 15.64v-4.65a12.41 12.41 0 01-4 .67c-3.76 0-4.87-1.93-4.87-7.16V47.76h9.74v-4.65H351V31.24h-5.16v11.87h-5.54v4.65h5.54v21.91c0 4.43 1.4 9.45 9.3 9.45a14.35 14.35 0 004.75-.74zm-45.77-3.91c-7.81 0-13.35-5.76-13.35-13.58s5.61-13.79 13.35-13.79c8 0 13.43 6.27 13.43 13.79s-5.38 13.58-13.43 13.58zm13.72 3.69H333v-35h-5.17v6.35a15.61 15.61 0 00-13.57-7c-10.4 0-18.59 7.82-18.59 18.37s8 18.3 18.51 18.3c5.76 0 10.56-2.36 13.65-6.94zm-46.13 0h5.17V58.68c0-11-5.61-16.23-14.54-16.23-5.09 0-8.41 1.69-11.14 5.61v-5H256v35.1h5.17v-16.9c0-7.75 2.07-14.16 10.63-14.16 8 0 9.88 5.75 9.88 13.06z" fill="#fff"></path>
</svg>
