<?xml version="1.0" encoding="UTF-8"?>
<svg xmlns="http://www.w3.org/2000/svg" id="Layer_1" data-name="Layer 1" viewBox="0 0 497.9 151.23">
  <defs>
    <style>.cls-1{fill:#ffffff;}</style>
  </defs>
  <path class="cls-1" d="M5.84,6.6H255a3.58,3.58,0,0,1,.36,2.25c0,14.94,0,29.88,0,44.82,0,1.92.55,2.29,2.36,2.29q121.14-.08,242.27,0c2.77,0,3.1.33,3.1,3q0,48,0,95.93c0,2.67-.63,2.94-2.8,2.94q-246.15-.06-492.28,0c-2.59,0-2.81-.22-2.81-2.9q0-72.63,0-145.26A5.35,5.35,0,0,1,5.84,6.6ZM8,131.33c0,7.31,0,14.63,0,21.94,0,1.37.39,1.68,1.71,1.68q21.77-.07,43.53,0c1.22,0,1.63-.28,1.62-1.57q-.06-21.85,0-43.71c0-1.29-.39-1.57-1.62-1.57q-21.76.06-43.53,0c-1.3,0-1.73.26-1.71,1.65C8.05,116.94,8,124.13,8,131.33ZM354.32,82c0,7.31,0,14.63,0,21.94,0,1.37.38,1.68,1.7,1.68q21.76-.07,43.53,0c1.21,0,1.64-.25,1.63-1.56q-.06-21.86,0-43.71c0-1.28-.38-1.58-1.62-1.58q-21.77.06-43.53,0c-1.51,0-1.73.53-1.72,1.84C354.35,67.74,354.32,74.87,354.32,82ZM278.65,105.6c7.31,0,14.63,0,21.94,0,1.08,0,1.57-.15,1.56-1.43q-.07-21.94,0-43.89c0-1.14-.26-1.53-1.47-1.53q-21.94.06-43.89,0c-1.22,0-1.48.39-1.48,1.53q0,21.87,0,43.72c0,1.24.3,1.62,1.58,1.61C264.14,105.56,271.39,105.6,278.65,105.6ZM203.12,82.38c0-7.26,0-14.52,0-21.78,0-1.33-.24-1.85-1.75-1.84q-21.68.09-43.37,0c-1.28,0-1.75.22-1.74,1.64q.09,21.78,0,43.55c0,1.4.45,1.67,1.74,1.66q21.69-.06,43.37,0c1.49,0,1.76-.49,1.75-1.84C203.09,96.66,203.12,89.52,203.12,82.38Zm125.21,25.74c-7.25,0-14.51,0-21.77,0-1.27,0-1.59.34-1.59,1.6q.07,21.86,0,43.71c0,1.12.22,1.55,1.46,1.55q21.94-.07,43.9,0c1.19,0,1.49-.34,1.49-1.5q-.06-21.85,0-43.72c0-1.43-.48-1.64-1.74-1.63C342.84,108.15,335.59,108.12,328.33,108.12Zm125,23.21h0c0,7.31,0,14.63,0,21.94,0,1.38.39,1.68,1.71,1.68q21.76-.07,43.53,0c1.22,0,1.63-.26,1.62-1.56q-.07-21.85,0-43.71c0-1.3-.39-1.58-1.62-1.58q-21.76.06-43.53,0c-1.53,0-1.72.55-1.71,1.84C453.34,117.06,453.32,124.19,453.32,131.33ZM229.41,105.6c7.19,0,14.39,0,21.58,0,1.29,0,1.86-.16,1.85-1.71q-.1-21.76,0-43.53c0-1.23-.29-1.62-1.57-1.61q-21.87.06-43.72,0c-1.29,0-1.57.4-1.56,1.62q.06,21.77,0,43.53c0,1.32.3,1.72,1.67,1.71C214.89,105.56,222.15,105.6,229.41,105.6Zm-198.15,0c7.32,0,14.64,0,22,0,1.27,0,1.62-.34,1.62-1.61q-.06-21.76,0-43.55c0-1.32-.29-1.71-1.68-1.7q-21.67.07-43.37,0c-1.39,0-1.82.32-1.81,1.77Q8,82.23,8,103.91c0,1.33.32,1.73,1.69,1.72C16.86,105.56,24.06,105.6,31.26,105.6ZM153.8,131.71c0-7.32,0-14.64,0-22,0-1.38-.38-1.68-1.71-1.67q-21.76.07-43.53,0c-1.22,0-1.63.26-1.63,1.56q.07,21.85,0,43.72c0,1.28.36,1.58,1.61,1.58q21.77-.07,43.53,0c1.52,0,1.73-.53,1.72-1.85C153.77,146,153.8,138.84,153.8,131.71ZM328.47,58.8c-7.25,0-14.51,0-21.77,0-1.28,0-1.74.24-1.73,1.65Q305,82.19,305,104c0,1.37.38,1.68,1.7,1.68q21.76-.07,43.54,0c1.2,0,1.63-.23,1.62-1.55q-.06-21.85,0-43.71c0-1.26-.33-1.6-1.59-1.59C343,58.83,335.73,58.8,328.47,58.8ZM203.12,131.7c0-7.31,0-14.63,0-21.94,0-1.37-.36-1.68-1.69-1.67q-21.68.07-43.35,0c-1.34,0-1.83.24-1.83,1.73q.1,21.68,0,43.35c0,1.43.39,1.78,1.79,1.78q21.58-.07,43.17,0c1.46,0,1.93-.31,1.91-1.84C203.08,146,203.12,138.84,203.12,131.7ZM153.8,82.19c0-7.2,0-14.39,0-21.59,0-1.32-.22-1.85-1.73-1.84q-21.76.09-43.53,0c-1.26,0-1.6.32-1.59,1.59q.06,21.86,0,43.71c0,1.31.42,1.56,1.63,1.55q21.77-.06,43.53,0c1.33,0,1.72-.31,1.71-1.68C153.76,96.7,153.8,89.44,153.8,82.19ZM80.72,108.12c-7.2,0-14.39,0-21.59,0-1.3,0-1.85.18-1.85,1.71q.11,21.77,0,43.54c0,1.24.31,1.61,1.58,1.61q21.87-.07,43.72,0c1.3,0,1.56-.41,1.56-1.62q-.06-21.78,0-43.54c0-1.31-.28-1.72-1.66-1.71C95.23,108.16,88,108.12,80.72,108.12Zm346.69-2.52c7.13,0,14.27,0,21.41,0,1.52,0,2-.27,2-1.94q-.12-21.5,0-43c0-1.45-.31-1.93-1.86-1.92q-21.59.09-43.19,0c-1.35,0-1.83.25-1.82,1.74q.09,21.69,0,43.37c0,1.5.5,1.76,1.84,1.74C413,105.57,420.21,105.6,427.41,105.6ZM404,131.53c0,7.13,0,14.27,0,21.4,0,1.49.23,2,1.92,2q21.57-.12,43.16,0c1.42,0,1.79-.37,1.79-1.79q-.09-21.66,0-43.34c0-1.27-.21-1.74-1.63-1.74q-21.76.09-43.53,0c-1.34,0-1.71.32-1.7,1.68C404,117,404,124.27,404,131.53Zm-198-.19c0,7.31,0,14.63,0,21.94,0,1.39.4,1.67,1.71,1.67q21.76-.07,43.53,0c1.22,0,1.63-.26,1.62-1.56q-.08-21.85,0-43.72c0-1.28-.38-1.57-1.61-1.57q-21.76.06-43.54,0c-1.53,0-1.71.55-1.7,1.85C206,117.06,206,124.2,206,131.34ZM80.75,58.8c-7.26,0-14.51,0-21.77,0-1.35,0-1.69.35-1.69,1.69q.08,21.76,0,43.53c0,1.44.49,1.64,1.74,1.63q21.68-.06,43.35,0c1.43,0,1.78-.38,1.78-1.78q-.09-21.67,0-43.35c0-1.5-.49-1.74-1.82-1.73C95.14,58.83,87.94,58.8,80.75,58.8Zm198,49.32c-7.19,0-14.39,0-21.58,0-1.3,0-1.86.18-1.85,1.71q.09,21.77,0,43.53c0,1.24.28,1.62,1.57,1.62q21.86-.07,43.71,0c1.31,0,1.57-.42,1.56-1.63q0-21.76,0-43.53c0-1.32-.29-1.72-1.66-1.71C293.23,108.16,286,108.12,278.72,108.12Zm99.19,0c-7.32,0-14.64,0-22,0-1.38,0-1.67.39-1.66,1.71q.06,21.78,0,43.54c0,1.23.26,1.62,1.56,1.62q21.86-.07,43.72,0c1.28,0,1.57-.36,1.57-1.6q-.06-21.78,0-43.55c0-1.52-.53-1.72-1.84-1.71C392.18,108.15,385.05,108.12,377.91,108.12Zm-214-72.69c-.49-.8-.87-1.15-1.18-1.66-2.17-3.62-4.44-7.19-6.63-10.8-.47-.77-.94-1.48-1.93-1.2s-1.09,1.09-1.08,2c0,5.45,0,10.9,0,16.36,0,1,.13,2,1.39,2.06s1.52-1,1.51-2.12c0-3.71,0-7.42,0-11.53.51.69.83,1.08,1.09,1.5,2.26,3.64,4.53,7.27,6.73,10.94.48.78.93,1.46,1.9,1.2s1.1-1.07,1.1-2q0-8.18,0-16.36c0-1.05-.11-2-1.37-2.08s-1.53,1-1.52,2.09C163.91,27.56,163.89,31.27,163.89,35.43Zm27.73-13.71c-1.14,0-2.28,0-3.42,0-1.46-.07-2,.58-2,2,0,5.52,0,11,0,16.55,0,1,.24,1.87,1.37,1.91s1.55-.81,1.53-1.91c0-2,0-4,0-5.94,0-.53-.09-1.12.75-1.11,1.33,0,2.71-.3,3.56,1.2,1.24,2.19,3.91,3.56,3.65,6.62a1.23,1.23,0,0,0,1.35,1.17A1.29,1.29,0,0,0,199.85,41c.07-1.58.29-3.18-1.14-4.47a22.87,22.87,0,0,1-2.14-2.79c-.36-.45-.32-.62.23-.89,2.58-1.28,3.3-3.48,3.11-6.23A5.14,5.14,0,0,0,195,21.72C193.9,21.7,192.76,21.72,191.62,21.72Zm270,61c0,1.86,0,3.72,0,5.57A4.38,4.38,0,0,0,466.37,93q2.07,0,4.14,0a4.39,4.39,0,0,0,4.77-4.72q0-5.49,0-11c0-3-1.82-4.82-4.86-4.81h-4a4.45,4.45,0,0,0-4.86,4.81ZM136.16,32c0,2.82,0,5.64,0,8.45,0,1.28.54,1.85,1.83,1.84,3.35,0,6.71,0,10.07,0,1.05,0,1.79-.39,1.75-1.51s-.75-1.38-1.71-1.37h-4.5c-4.68,0-4.65,0-4.58-4.72,0-1.06.24-1.47,1.39-1.43,2.58.09,5.16,0,7.73,0,1,0,1.65-.4,1.67-1.42s-.64-1.47-1.62-1.46h-4.86c-4.44,0-4.39,0-4.32-4.44,0-1.18.46-1.37,1.48-1.34,2.46.06,4.91,0,7.37,0,1.09,0,2-.25,1.95-1.51s-.86-1.4-1.88-1.39c-3.24,0-6.47.05-9.71,0-1.57,0-2.11.68-2.08,2.17C136.2,26.56,136.16,29.25,136.16,32ZM44,32h0v5.4c0,3.09,1.75,4.87,4.78,4.88q2.07,0,4.14,0a4.38,4.38,0,0,0,4.76-4.71q0-5.49,0-11c0-3.06-1.78-4.8-4.86-4.82h-4c-3.07,0-4.83,1.77-4.85,4.84C44,28.36,44,30.15,44,32ZM216.8,36.3a27.13,27.13,0,0,0-3.59-13.46,1.84,1.84,0,0,0-1.44-1.14c-4-.49-4.47-.23-6,3.4-.07.16-.14.32-.2.48-.8,2.08-2,4.09-2.31,6.24a63,63,0,0,0-.09,8.8c0,1,.49,1.62,1.5,1.6s1.3-.64,1.38-1.54c.25-2.76.27-2.76,3.06-2.76h1.8c2.79,0,2.8,0,3,2.75.08.91.48,1.52,1.39,1.53s1.51-.57,1.5-1.59ZM33.62,42.23c1,0,1.63,0,2.29,0a5.15,5.15,0,0,0,4.66-6.5c-.55-1.94-2-2.95-3.58-3.85C34.94,30.73,32.65,30,30.8,28.5a1.91,1.91,0,0,1-.71-2.36,2.15,2.15,0,0,1,2.14-1.54c.9,0,1.8,0,2.7,0,1.63-.05,2.77.46,3,2.29a1.32,1.32,0,0,0,1.6,1.29c.89-.13,1.25-.74,1.27-1.65a5.27,5.27,0,0,0-4.63-4.78c-1.43,0-2.87,0-4.31,0a5.26,5.26,0,0,0-4.76,4.84c-.1,2.85,1.68,4.34,3.87,5.56,2,1.15,4.35,1.8,6.17,3.38a1.94,1.94,0,0,1,.61,2.39,2.12,2.12,0,0,1-2,1.44c-.83,0-1.68,0-2.51,0-1.74.1-3-.31-3.25-2.36a1.3,1.3,0,0,0-1.49-1.22,1.39,1.39,0,0,0-1.37,1.55,3.65,3.65,0,0,0,.3,1.54C28.67,41.79,31,42.57,33.62,42.23ZM107.72,32c0-2.76,0-5.52,0-8.28,0-1-.22-1.87-1.35-1.92s-1.57.8-1.54,1.91c0,1.86,0,3.72,0,5.58,0,.86-.28,1.15-1.14,1.13-1.86-.05-3.72-.05-5.58,0-.92,0-1.27-.25-1.24-1.22.07-1.85,0-3.71,0-5.57,0-1.05-.31-1.84-1.43-1.85S94,22.51,94,23.56q0,8.37,0,16.74c0,1,.24,1.86,1.37,1.9s1.55-.81,1.53-1.92c0-1.92,0-3.84,0-5.75,0-1,.32-1.35,1.33-1.31,1.8.07,3.6.06,5.4,0,.94,0,1.26.26,1.23,1.22-.06,1.91,0,3.83,0,5.75,0,1.06.15,2,1.43,2s1.47-.91,1.46-2C107.7,37.47,107.72,34.71,107.72,32ZM60.56,30.56v6.83c0,3,1.81,4.84,4.82,4.85h4.14a4.41,4.41,0,0,0,4.72-4.76q0-6.75,0-13.49c0-.18,0-.36,0-.54,0-1-.37-1.68-1.39-1.7s-1.5.71-1.5,1.77c0,4.55,0,9.11,0,13.66,0,1.63-.62,2.3-2.23,2.19a26,26,0,0,0-3.42,0c-1.69.11-2.35-.57-2.31-2.29.08-4.5,0-9,0-13.49,0-1-.29-1.83-1.42-1.84s-1.49.74-1.48,1.79C60.58,25.88,60.56,28.22,60.56,30.56Zm59.05,1.38h0c0,1.91,0,3.83,0,5.75a4.4,4.4,0,0,0,4.57,4.55c1.74,0,3.48,0,5.22,0,2-.07,4.11-2.46,3.89-4.33a1.51,1.51,0,0,0-1.17-1.4,1.21,1.21,0,0,0-1.57.86c-.17,2.27-1.74,2-3.23,2-1,0-1.92,0-2.88,0-1.35.05-2-.53-2-1.91,0-3.65,0-7.31,0-11,0-1.37.61-1.95,2-1.9s2.64,0,4,0,1.93.29,2.05,1.64a1.29,1.29,0,0,0,1.48,1.22c.91-.08,1.31-.65,1.37-1.56a4.34,4.34,0,0,0-4-4.17c-1.61-.05-3.23,0-4.85,0-3.07,0-4.83,1.74-4.85,4.82C119.6,28.34,119.61,30.14,119.61,31.94ZM478.16,82.77h0c0,2.82,0,5.63,0,8.45,0,1.08.43,1.77,1.53,1.74s1.36-.78,1.36-1.73c0-2,0-4,0-5.93,0-1,.26-1.35,1.3-1.33,2.57.07,5.15,0,7.73,0,1.05,0,1.81-.38,1.77-1.5s-.74-1.41-1.72-1.39c-1.56,0-3.12,0-4.68,0-4.55,0-4.51,0-4.41-4.51,0-1,.37-1.3,1.35-1.27,2.52.06,5,0,7.55,0,1,0,1.87-.25,1.91-1.38s-.84-1.53-1.94-1.52c-3.24,0-6.47,0-9.71,0-1.45,0-2.05.6-2,2C478.19,77.26,478.16,80,478.16,82.77ZM219.68,31.91c0,2.76,0,5.52,0,8.27,0,1.43.5,2.09,2,2.07,3.24,0,6.48,0,9.72,0,1.08,0,2-.24,2-1.49s-1-1.42-2.05-1.41c-2.28,0-4.56-.08-6.83,0-1.47.08-2-.31-1.92-1.85.1-4.62,0-9.24,0-13.85,0-1.1-.26-2-1.51-1.94s-1.4.86-1.39,1.88C219.71,26.39,219.68,29.15,219.68,31.91ZM175,33c0,2.33,0,4.67,0,7,0,1.07,0,2.2,1.41,2.22s1.49-1.06,1.48-2.16c0-4,0-8,0-12,0-3.37,0-3.37,3.3-3.42.23,0,.48,0,.71,0a1.35,1.35,0,0,0,1.37-1.36,1.32,1.32,0,0,0-1.4-1.5c-3.59,0-7.19,0-10.78,0a1.33,1.33,0,0,0-1.46,1.44,1.35,1.35,0,0,0,1.49,1.42,26.81,26.81,0,0,0,2.69,0c.95-.07,1.24.29,1.22,1.22C175,28.2,175,30.59,175,33Zm-89.64.18c0-1.5,0-3,0-4.49,0-1.3-.53-2.9.27-3.82s2.27-.16,3.45-.26a1.08,1.08,0,0,1,.18,0,1.35,1.35,0,0,0,1.47-1.43,1.32,1.32,0,0,0-1.46-1.44c-3.59,0-7.18,0-10.78,0a1.29,1.29,0,0,0-1.39,1.48,1.36,1.36,0,0,0,1.53,1.38,14.39,14.39,0,0,0,2,0c1.44-.2,1.95.27,1.91,1.82-.11,4.61,0,9.22,0,13.83,0,1.08.22,2,1.48,2s1.44-1,1.42-2C85.38,37.84,85.4,35.5,85.4,33.17ZM29.6,141.94c0,1.3.2,2.49,1.79,2.5s1.82-1.16,1.82-2.47c0-4.91,0-9.82,0-14.73,0-1.49-.49-3.39.24-4.36s2.8-.23,4.26-.36h.36c1.18,0,1.94-.59,1.94-1.79s-.78-1.79-1.95-1.79q-6.64,0-13.29,0c-1.16,0-2,.53-2,1.75s.85,1.84,2.1,1.83,2.28.06,3.41,0,1.34.26,1.32,1.3c-.06,3.11,0,6.23,0,9.34C29.6,136.07,29.62,139,29.6,141.94ZM375.93,93.25a1.8,1.8,0,1,0,3.59,0c0-.42,0-.84,0-1.26,0-5.76,0-11.52,0-17.27,0-1.29.38-1.71,1.63-1.59,1.07.09,2.15,0,3.23,0s2-.55,2-1.77a1.7,1.7,0,0,0-1.93-1.82H371.09c-1.18,0-2,.55-2,1.77A1.69,1.69,0,0,0,371,73.19a32.5,32.5,0,0,0,3.42,0c1.24-.12,1.51.41,1.48,1.54-.06,2.94,0,5.88,0,8.82C375.93,86.77,375.92,90,375.93,93.25ZM280.5,74.49c0-1,.29-1.37,1.32-1.31a36.47,36.47,0,0,0,3.77,0,1.79,1.79,0,0,0,0-3.57q-6.82,0-13.66,0a1.79,1.79,0,0,0,0,3.57,21.44,21.44,0,0,0,3.4,0c1.39-.15,1.69.37,1.67,1.69-.07,6,0,12,0,18,0,1.28.38,2.3,1.81,2.29s1.81-1,1.8-2.31c0-3,0-6,0-9S280.57,77.6,280.5,74.49ZM177.91,92.62c0,1.32.24,2.49,1.8,2.5s1.83-1.16,1.82-2.48c0-5,0-10.08,0-15.12,0-4.28,0-4.28,4.21-4.32h.72c1.19,0,1.92-.66,1.88-1.87a1.67,1.67,0,0,0-1.85-1.71q-6.75,0-13.49,0a1.79,1.79,0,1,0,0,3.58c.84,0,1.68,0,2.52,0,2.42,0,2.42,0,2.42,2.5v8.1C177.92,86.74,177.94,89.68,177.91,92.62ZM319.77,142c0,1.75.7,2.48,2.44,2.48,4.14,0,8.28,0,12.42,0,1.27,0,2.34-.28,2.37-1.74s-1.11-1.88-2.43-1.87c-3.18,0-6.36-.06-9.54,0-1.34,0-1.72-.33-1.7-1.68.07-5.94,0-11.88,0-17.82,0-1.33-.26-2.47-1.83-2.45s-1.8,1.19-1.79,2.51c0,3.42,0,6.84,0,10.26S319.76,138.57,319.77,142Zm155.15.22c0,1.3.44,2.28,1.87,2.23s1.75-.95,1.74-2.19c0-2.88,0-5.75,0-8.63A2.12,2.12,0,0,1,479,132c1.42-1.58,2.7-3.29,4.17-4.82a7.11,7.11,0,0,0,2.28-6c-.14-1.23-.52-2.13-1.83-2.14s-1.85.85-1.81,2.11a3.23,3.23,0,0,1-.39,2.24c-1.29,1.61-2.61,3.2-3.92,4.79-.38.45-.86.84-1.28.14-1.53-2.54-4.84-4-4.52-7.67a1.55,1.55,0,0,0-1.38-1.59c-.79-.17-1.64,0-1.88.89-.47,1.79-.78,3.64.39,5.28a23.94,23.94,0,0,0,2.56,3c2.5,2.52,4.37,5.27,3.59,9.08a2.35,2.35,0,0,0,0,.53C474.93,139.21,474.94,140.71,474.92,142.21ZM223.05,69.59c-1.31,0-2.28.42-2.25,1.86s.93,1.78,2.17,1.75c1.08,0,2.17.08,3.24,0s1.43.31,1.41,1.41c-.06,4.2,0,8.4,0,12.6,0,1.37.43,3.16-.25,4-.83,1-2.7.21-4.11.36-.18,0-.36,0-.54,0-1.18,0-1.94.62-1.91,1.84a1.69,1.69,0,0,0,1.83,1.75h13.5A1.69,1.69,0,0,0,238,93.29c0-1.21-.84-1.73-2-1.73s-2.28-.08-3.41,0-1.41-.37-1.4-1.44c0-4.14,0-8.28,0-12.42,0-1.43-.44-3.25.27-4.18s2.69-.2,4.1-.34a.54.54,0,0,1,.18,0c1.31.06,2.27-.42,2.24-1.86s-.93-1.77-2.17-1.75c-2.16,0-4.32,0-6.48,0S225.15,69.62,223.05,69.59ZM33.21,82.41c0-2.7,0-5.4,0-8.09,0-.86.26-1.17,1.12-1.13,1.25,0,2.51,0,3.77,0S40,72.59,40,71.37a1.65,1.65,0,0,0-1.8-1.76q-6.84,0-13.66,0a1.64,1.64,0,0,0-1.77,1.78,1.67,1.67,0,0,0,1.78,1.78,35.82,35.82,0,0,0,3.59,0c1-.06,1.49.18,1.48,1.35-.06,5.27-.05,10.54,0,15.81,0,.93-.23,1.29-1.2,1.24-1.25-.08-2.52,0-3.77,0a1.78,1.78,0,1,0,0,3.56q6.74,0,13.47,0A1.68,1.68,0,0,0,40,93.44c.06-1.21-.7-1.82-1.87-1.87a20.48,20.48,0,0,0-3.23,0c-1.5.18-1.79-.46-1.74-1.81.11-2.45,0-4.91,0-7.36Zm88.56,56.82a5.49,5.49,0,0,0,5.18,5.24q3.51.06,7,0a5.38,5.38,0,0,0,5.07-4.55c.14-1.2-.08-2.36-1.5-2.58s-1.95.54-2.1,1.81a1.84,1.84,0,0,1-2.06,1.74c-2,0-4,0-5.94,0a1.92,1.92,0,0,1-2.06-2.15c0-4.68,0-9.36,0-14a2,2,0,0,1,2.23-2.17c1.92,0,3.84,0,5.75,0a1.81,1.81,0,0,1,2.08,1.7c.16,1.38.92,2.12,2.24,1.83s1.53-1.53,1.35-2.71a5.43,5.43,0,0,0-5.21-4.41c-2,0-4,.14-5.94-.05a5.64,5.64,0,0,0-6.13,6.14c.13,2.21,0,4.43,0,6.65C121.76,134.19,121.72,136.71,121.77,139.23Zm198-49.41A5.33,5.33,0,0,0,325,95.14c2.28,0,4.56,0,6.83,0A5.24,5.24,0,0,0,337,90c0-2.22,0-4.44,0-6.66,0-3.89,0-7.79,0-11.69a1.86,1.86,0,0,0-1.21-2,1.69,1.69,0,0,0-1.93.49,2.77,2.77,0,0,0-.46,2q0,8.35,0,16.72c0,1.93-.65,2.59-2.53,2.61h-4.49c-2.58,0-3.06-.47-3.06-3,0-5.52,0-11,0-16.55,0-1.35-.32-2.45-1.88-2.4s-1.75,1.11-1.73,2.38c0,3,0,6,0,9S319.74,86.88,319.77,89.82ZM171.08,131.75c0,3.35,0,6.71,0,10.07,0,1.35.17,2.65,1.86,2.62s1.78-1.37,1.76-2.71c0-2.34,0-4.68,0-7,0-1.08.24-1.47,1.38-1.43q3.69.14,7.37,0c1.17,0,1.4.39,1.37,1.44-.06,2.46,0,4.92,0,7.37,0,1.29.34,2.31,1.77,2.34s1.84-1,1.84-2.27q0-10.51,0-21c0-1.24-.46-2.14-1.75-2.17s-1.87.93-1.86,2.24c0,2.39,0,4.79,0,7.19,0,1-.2,1.38-1.28,1.35q-3.76-.12-7.55,0c-1.06,0-1.31-.37-1.29-1.35.06-2.34,0-4.67,0-7,0-1.34-.31-2.45-1.87-2.42s-1.76,1.08-1.74,2.36c0,3.48,0,7,0,10.43Zm-38.17-36.6A6.24,6.24,0,0,0,138.72,87c-.93-2.91-3.3-4.32-5.85-5.51-2.28-1.07-4.74-1.84-6.61-3.64a2.43,2.43,0,0,1-.69-2.9,2.67,2.67,0,0,1,2.61-1.76c1.32,0,2.64,0,4,0,2.15,0,3,.7,3.29,2.85.17,1.19.78,1.88,2,1.79s1.58-.83,1.65-1.93c.2-3-2.81-6.25-5.9-6.31-1.74,0-3.48,0-5.21,0a6.31,6.31,0,0,0-5.88,8.12c1.06,3.23,3.82,4.61,6.64,5.91,2,.9,4.08,1.57,5.7,3.12a2.54,2.54,0,0,1,.85,3,2.73,2.73,0,0,1-2.78,1.79c-1.38,0-2.76,0-4.14,0a2.69,2.69,0,0,1-3-2.64c-.12-1.27-.67-2.07-1.94-2-1.44.09-1.86,1.2-1.64,2.42a6.68,6.68,0,0,0,3.22,5c1.75,1,3.56.77,5.13.83ZM72.08,141.6c0,2.3.55,2.88,2.78,2.88,4,0,7.91,0,11.86,0,1.36,0,2.64-.16,2.6-1.87s-1.27-1.75-2.55-1.74c-3.24,0-6.47-.05-9.71,0-1.14,0-1.45-.34-1.4-1.42a42.79,42.79,0,0,0,0-4.67c-.06-1.14.25-1.55,1.47-1.52,3.35.08,6.71,0,10.07,0,1.24,0,2.13-.49,2.13-1.8s-.89-1.81-2.13-1.8c-2,0-4,.05-5.93,0s-4.33.84-5.3-.39-.2-3.56-.31-5.41c-.06-1.11.3-1.43,1.41-1.41,3.36.07,6.71,0,10.07,0,1.22,0,2.16-.42,2.19-1.74s-.94-1.87-2.25-1.87c-4.19,0-8.39,0-12.58,0-1.75,0-2.41.72-2.41,2.53,0,3.42,0,6.83,0,10.25Zm346.69-49c0,1.87.68,2.53,2.59,2.53,4,0,8,0,12,0,1.36,0,2.64-.17,2.6-1.86s-1.27-1.75-2.55-1.75c-3.29,0-6.59,0-9.88,0-.95,0-1.27-.28-1.22-1.23a42.79,42.79,0,0,0,0-4.67c-.09-1.29.22-1.77,1.64-1.72,3.29.12,6.59,0,9.88,0,1.23,0,2.14-.45,2.15-1.79s-.88-1.81-2.12-1.8c-2,0-3.95,0-5.93,0-1.79,0-4.24.62-5.2-.29-1.2-1.15-.23-3.62-.41-5.5-.11-1.11.28-1.45,1.4-1.43,3.29.08,6.59,0,9.88,0,1.26,0,2.34-.3,2.38-1.75s-1.09-1.88-2.42-1.88c-4.14,0-8.27,0-12.41,0-1.73,0-2.41.72-2.41,2.53,0,3.42,0,6.83,0,10.25S418.76,89.21,418.77,92.62Zm0,42.83c0,1.26,0,2.52,0,3.77a5.5,5.5,0,0,0,5.18,5.25c2.33.05,4.67,0,7,0s5-2.54,5.06-4.83c.08-2.64,0-5.28,0-7.91a1.74,1.74,0,0,0-1.78-2c-1.56-.06-3.12,0-4.68,0a1.66,1.66,0,0,0-1.78,1.77,1.73,1.73,0,0,0,1.76,1.82c.93.11,2.22-.48,2.7.3s.17,2,.19,3c0,.66,0,1.32,0,2a2,2,0,0,1-2.29,2.3c-1.79,0-3.59,0-5.39,0a2.08,2.08,0,0,1-2.4-2.38q0-6.83,0-13.66c0-1.55.72-2.32,2.27-2.32,1.86,0,3.72,0,5.58,0a1.92,1.92,0,0,1,2.25,1.91,1.68,1.68,0,0,0,2.06,1.65c1.08-.16,1.51-.94,1.52-2a5.29,5.29,0,0,0-5.08-5.09c-2-.06-4.09.13-6.11-.06a5.65,5.65,0,0,0-6.11,6.14c.13,2.21,0,4.43,0,6.65ZM224.44,120.16a2.06,2.06,0,0,0-2.33-1.17,1.51,1.51,0,0,0-1.37,1.58c0,7.31,0,14.63,0,21.94a1.71,1.71,0,0,0,1.81,1.94c1.2,0,1.77-.8,1.78-2V127.84a53.43,53.43,0,0,1,4.34,6.24c2,3.18,4,6.33,6,9.52a1.91,1.91,0,0,0,2.3.8,1.43,1.43,0,0,0,1-1.5c0-7.38,0-14.75,0-22.13a1.65,1.65,0,0,0-1.74-1.82,1.71,1.71,0,0,0-1.84,1.9c0,.48,0,1,0,1.44v14C230.9,130.62,227.64,125.41,224.44,120.16ZM75.81,70.92a2.12,2.12,0,0,0-2.45-1.24c-1.15.26-1.31,1.12-1.3,2.19,0,6.95,0,13.91,0,20.87,0,1.27.3,2.34,1.75,2.38S75.7,94,75.69,92.69c0-4.2,0-8.4,0-12.6,0-.54-.21-1.15.29-1.77l1.28,2c2.84,4.52,5.7,9,8.51,13.58a2.14,2.14,0,0,0,2.5,1.19c1.19-.32,1.11-1.37,1.1-2.35,0-3.54,0-7.07,0-10.61s0-7.08,0-10.62a1.7,1.7,0,0,0-1.84-1.91,1.68,1.68,0,0,0-1.73,1.83c0,.54,0,1.08,0,1.62V87C82.26,81.36,79,76.16,75.81,70.92Zm211.55,60.73a63.22,63.22,0,0,0,0,6.46,5.85,5.85,0,0,1-6.45,6.4,33.44,33.44,0,0,0-5.39,0c-2.94.14-5.56-2.9-5.5-5.51.09-4.67.13-9.35,0-14a5.69,5.69,0,0,1,6.17-6.08c2,.19,3.95,0,5.93,0a5.35,5.35,0,0,1,5.2,5.18C287.39,126.62,287.36,129.13,287.36,131.65Zm-3.6.13c0-2.34,0-4.67,0-7,0-1.54-.7-2.28-2.26-2.26-1.85,0-3.71,0-5.57,0a2,2,0,0,0-2.25,2.15q0,7,0,14a2,2,0,0,0,2.2,2.19c1.85,0,3.71,0,5.57,0a2,2,0,0,0,2.3-2.28Zm85.32-.26c0-2.22.1-4.44,0-6.65a5.6,5.6,0,0,1,5.92-6c2,.16,4.07,0,6.1,0a5.35,5.35,0,0,1,5.27,5.29c0,5,0,9.95,0,14.92a5.61,5.61,0,0,1-5.45,5.34,51,51,0,0,0-5.93,0,5.8,5.8,0,0,1-5.95-6C369.24,136.2,369.08,133.85,369.08,131.52Zm3.6.15c0,2.34,0,4.68,0,7a2,2,0,0,0,2.2,2.19c1.91,0,3.83,0,5.74,0a1.89,1.89,0,0,0,2.12-2.08c0-4.73,0-9.47,0-14.2a1.83,1.83,0,0,0-2.07-2.07h-5.57c-1.73,0-2.42.73-2.43,2.51C372.67,127.24,372.68,129.46,372.68,131.67ZM194.37,30.35c2.06,0,2.62-.62,2.63-2.83s-.54-2.89-2.54-2.92a24.53,24.53,0,0,1-3.21,0c-1.87-.28-2.28.48-2.21,2.24.14,3.55,0,3.55,3.54,3.55ZM464.5,82.74c0,1.85,0,3.71,0,5.56,0,1.3.57,1.85,1.84,1.82,1.43,0,2.87,0,4.31,0,1.16,0,1.76-.49,1.75-1.71,0-3.77,0-7.54,0-11.32a1.51,1.51,0,0,0-1.75-1.73c-1.44,0-2.87,0-4.31,0-1.29,0-1.87.55-1.86,1.82,0,1.86,0,3.71,0,5.57ZM54.81,26.41c0-1.28-.59-1.85-1.85-1.82-1.44,0-2.88,0-4.32,0a1.53,1.53,0,0,0-1.76,1.73q0,5.66,0,11.32a1.52,1.52,0,0,0,1.76,1.72c1.44,0,2.87,0,4.31,0,1.27,0,1.88-.52,1.86-1.81,0-1.86,0-3.71,0-5.57S54.78,28.27,54.81,26.41Zm157.27,8.64c1.45.19,2-.27,1.88-1.83-.26-3.08-2.16-5.54-3-8.38-.18-.61-1.77-.24-2.07.46-.9,2-1.81,4.06-2.65,6.11-1,2.43-.22,3.63,2.27,3.63h1.43A17.29,17.29,0,0,1,212.08,35.05Z" transform="translate(-5.11 -6.6)"></path>
</svg>
