<?xml version="1.0" encoding="UTF-8"?>
<svg xmlns="http://www.w3.org/2000/svg" id="Artwork" viewBox="0 0 374.62 184.25">
  <defs>
    <style>.cls-1{fill:#ffffff;}</style>
  </defs>
  <path class="cls-1" d="M190.45,62.31c-.25-4.92-.94-16.81-2.41-29a122.26,122.26,0,0,0-3.27-17.58,39.44,39.44,0,0,0-2.85-7.49,16.08,16.08,0,0,0-2.24-3.19,9.6,9.6,0,0,0-3.27-2.33l-.95-.34-1,.17a10.59,10.59,0,0,0-2.75.86A9.26,9.26,0,0,0,169.69,5a13,13,0,0,0-2.42,3.28,29.62,29.62,0,0,0-2.06,5.43A65.08,65.08,0,0,0,163.83,21c-.26,1.81-.35,3-.43,3.79l-.09,1.12s-.26,2.59-.52,7.76l-.43,9.65c-.08,1.55-.17,3.1-.34,4.82-.69-1.46-1.38-3-2.07-4.56-1.38-2.93-2.76-6.12-4.39-9.22a40.59,40.59,0,0,0-2.85-4.57,10.82,10.82,0,0,0-2.15-2.33,7.33,7.33,0,0,0-1.73-1.12,6.25,6.25,0,0,0-2.75-.69h-1l-.78.43a3.36,3.36,0,0,0-.69.44l-.34.25-.26.26a8.12,8.12,0,0,0-.69.86c-.08.26-.26.43-.34.69s-.09.35-.17.52l-.09.26-.09.17-.08.35c0,.25-.09.43-.09.69v2c.09,1.12.17,2.07.26,2.93.26,1.72.52,3.27.77,4.48.52,2.58.87,4.31,1.21,5.6a86.83,86.83,0,0,0,5,15.16A58.9,58.9,0,0,0,151.94,67c.6,1,1.2,2.07,1.89,3.19a27.14,27.14,0,0,0,2.33,3.19,29.37,29.37,0,0,1-.69-3.7L155,66.18c-.26-2.32-.52-4.56-.86-6.89-.69-4.57-1.64-9.31-2.93-15.25l-.17-.69c.6,1.2,1.12,2.41,1.63,3.62,1.38,2.93,2.59,5.77,3.88,8.27a19.31,19.31,0,0,0,2.24,3.62,4.84,4.84,0,0,0,.86,1,3.75,3.75,0,0,0,.61.51,3.06,3.06,0,0,0,.86.61c.17.08.43.17.6.26l.34.08.44.09a3.57,3.57,0,0,0,1.89,0,4,4,0,0,0,1.64-.69,2.38,2.38,0,0,0,.52-.43l.43-.43.17-.18.08-.17a10.18,10.18,0,0,0,1.21-2.84c.17-.69.35-1.47.52-2.24.26-1.38.34-2.67.52-3.88.25-2.41.34-4.57.43-6.55l.43-9.65c.26-5.08.51-7.5.51-7.5l.09-1c.09-.69.17-1.9.34-3.53A51.44,51.44,0,0,1,172.44,16a17.42,17.42,0,0,1,1.38-3.71c.18-.26.35-.6.52-.86.17.34.43.6.6.95a27.66,27.66,0,0,1,2.16,5.86,117.39,117.39,0,0,1,3,16.46c1.47,11.71,2.07,23.61,2.42,28.43a105,105,0,0,0,1.89,15.6c.43,2.32,1,4.48,1.55,6.8a54.4,54.4,0,0,0,2.33,7.16c.26-2.67.69-5.09.95-7.41s.6-4.57.77-6.9A98.54,98.54,0,0,0,190.45,62.31ZM229.57,6.64a4.92,4.92,0,0,0-1.55-2,6.09,6.09,0,0,0-2.93-1.12,8.92,8.92,0,0,0-2.58.08,10.85,10.85,0,0,0-3.19,1,25.57,25.57,0,0,0-5.69,3.88c-1.38,1.29-2.75,2.58-4,4-.95,1.12-1.47,1.81-1.47,1.81s-.6.69-1.55,1.81-2.06,2.67-3.27,4.31c-1.72,2.32-3.45,4.91-4.48,6.63-1-6.37-2.07-13-2.5-15.34a15.8,15.8,0,0,0-2.07-5.51,23.87,23.87,0,0,0-3.79-4.48,32.08,32.08,0,0,0-1.72,5.6,16,16,0,0,0,0,5.77c.43,2.42,1.63,9.65,2.58,16.29s1.73,12.75,1.73,12.75.77,6.12,1.37,12.75l.43,5,.35,4.74c.17,2.93.34,5.34.43,6.55a18.16,18.16,0,0,0,.43,3,14.48,14.48,0,0,0,.78,2.58A37.64,37.64,0,0,0,199.67,82a20.08,20.08,0,0,0,2.85-5.17,10.07,10.07,0,0,0,.69-2.76,19.88,19.88,0,0,0,.17-3.18c0-1.3-.17-3.71-.35-6.81l-.34-4.83L202.17,54c-.34-3.1-.69-6-.95-8.36.26.44.52.95.78,1.38,1.12,2,2.24,3.88,3.1,5.26s1.47,2.24,1.47,2.24.6.86,1.46,2.24c1.21,1.72,2.5,3.36,3.79,5a30.39,30.39,0,0,0,5.43,5.08,15,15,0,0,0,3,1.64c.43.17.95.34,1.38.52a5.23,5.23,0,0,0,1.12.17,6.75,6.75,0,0,0,3.44-.43A5.66,5.66,0,0,0,228.45,67a6,6,0,0,0,.78-4.83,8.48,8.48,0,0,1-3.88.09,1.88,1.88,0,0,1-.95-.43,4,4,0,0,0-.6-.26,6,6,0,0,1-2.33-1.12,29.05,29.05,0,0,1-4.05-3.79q-1.78-2.07-3.36-4.31c-.86-1.21-1.37-2-1.37-2s-.52-.78-1.3-2.07-1.81-3-2.84-4.91c-2.07-3.79-4.14-8-4.83-9.39-.08-.18-.17-.26-.25-.43.17-.26.43-.52.6-.78.77-1.12,3-4.65,5.25-7.76,1.12-1.55,2.24-2.93,3-4a9.76,9.76,0,0,1,1.38-1.63s.52-.69,1.38-1.64a30.46,30.46,0,0,1,3.36-3.36,16.11,16.11,0,0,1,3.79-2.59,5.13,5.13,0,0,1,1.21-.43H224a.61.61,0,0,0,.43-.17,3.45,3.45,0,0,1,.95-.17,4.48,4.48,0,0,1,1.55,0,3,3,0,0,1,.95.09l1.12.25.35-1.12c.08-.34.08-.77.17-1.12a2.94,2.94,0,0,0,.08-2.41Zm-175,105.9h3.19v2h.08a4.37,4.37,0,0,1,4-2.32A3.74,3.74,0,0,1,65,114a4.25,4.25,0,0,1,3.54-1.81c2.75,0,4,2.06,4,4.48v25.59H69.22V117.8c0-1.64-.44-2.59-1.73-2.59s-2.15,1.29-2.15,2.76v24.3H62V117.8c0-1.64-.43-2.59-1.73-2.59S58.1,116.5,58.1,118v24.3H54.57Zm22-9.65h3.62V107H76.54Zm.09,9.65H80v29.73H76.63Zm7.75-9.65h3.36v39.38H84.38Zm7.93,5.6,3.36-1.29v5.26h2.41v2.67H95.67V137.7c0,1.38.69,1.73,1.72,1.73h.69v2.75H96.44c-2.84,0-4.13-1.38-4.13-3.62V115.21H90.59v-2.75h1.72Zm9.22,9.39c0-4.48,2.76-5.77,5.6-5.77s5.6,1.21,5.6,5.77v19c0,4.48-2.76,5.77-5.6,5.77s-5.6-1.2-5.6-5.77Zm7.84,0c0-2.15-.86-3-2.24-3s-2.24.77-2.24,3v19c0,2.15.86,3,2.24,3s2.24-.87,2.24-3Zm7.5-5.34h3.18v2h.09a4.63,4.63,0,0,1,4-2.32c2.76,0,4.05,2.06,4.05,4.48v25.59h-3.36V118c0-1.55-.6-2.76-2.15-2.76s-2.33,1.55-2.33,2.76v24.3h-3.44Zm24.73-9.74H145v21.72h.09l4.91-12h3.62l-5.6,12.58,6,17.15h-3.62l-5.34-16H145v16h-3.36Zm23.26,29.82h3.36v4.22c0,4.48-2.75,5.77-5.6,5.77s-5.6-1.2-5.6-5.77v-19c0-4.48,2.76-5.77,5.6-5.77s5.6,1.21,5.6,5.77v10.34h-7.84v8.62c0,2.15.86,3,2.24,3s2.24-.78,2.24-3Zm0-14.74c0-2.15-.86-3-2.24-3s-2.24.77-2.24,3v7.24h4.48Zm12.5,30.25H174l1.2-5.86-4.31-29.73h3.36l2.42,20h.08l2.85-20H183Zm8.79-35.59h3.18v2h.09a4.63,4.63,0,0,1,4-2.32c2.76,0,4.05,2.06,4.05,4.48v25.59h-3.36V118c0-1.55-.6-2.76-2.15-2.76s-2.33,1.55-2.33,2.76v24.3h-3.36Zm22.74,20.08h3.36v4.22c0,4.48-2.75,5.77-5.6,5.77s-5.6-1.2-5.6-5.77v-19c0-4.48,2.76-5.77,5.6-5.77s5.6,1.21,5.6,5.77v10.34h-7.84v8.62c0,2.15.86,3,2.24,3s2.24-.87,2.24-3Zm0-14.74c0-2.15-.86-3-2.24-3s-2.24.77-2.24,3v7.24H209Zm14.39-.94c0-1.38-.69-2-1.72-2-1.38,0-1.72,1-1.72,2.16v3.36a4.82,4.82,0,0,0,1.29,2.93l4.22,5.94a5.13,5.13,0,0,1,1.21,3.28v5c0,3.18-1.81,5-5.09,5-2.75,0-5-1.29-5-4.65v-5.17h3.36v4.57c0,1.38.17,2.5,1.72,2.5s1.64-1.21,1.64-2.59v-3.62a5.77,5.77,0,0,0-1.29-3.27L218,125.12a5.71,5.71,0,0,1-1.55-4v-3.88a4.91,4.91,0,0,1,5.25-5.17c3.62,0,4.74,2.5,4.74,4.22v4.91h-3.19Zm22.06.51c0-1.89-.51-2.5-1.55-2.5s-1.89.78-1.89,2.5V137.7c0,1.55.43,2.24,1.72,2.24s1.72-.86,1.72-2.24v-4.82h3.36v4.74c0,3.18-1.81,5-5.08,5-2.76,0-5.17-1.37-5.17-4.48V118c0-4.48,2.76-5.77,5.6-5.77s4.57,1.55,4.57,4.82v5h-3.36Zm58,0c0-1.89-.51-2.5-1.55-2.5s-1.89.78-1.89,2.5V137.7c0,1.55.43,2.24,1.72,2.24s1.72-.86,1.72-2.24v-4.82h3.45v4.74c0,3.18-1.81,5-5.08,5-2.76,0-5.17-1.37-5.17-4.48V118c0-4.48,2.75-5.77,5.6-5.77s4.56,1.55,4.56,4.82v5h-3.36Zm-50.92.52c0-4.48,2.76-5.77,5.6-5.77s5.6,1.2,5.6,5.77v19c0,4.48-2.76,5.77-5.6,5.77s-5.6-1.21-5.6-5.77Zm7.84,0c0-2.15-.86-3-2.24-3s-2.24.78-2.24,3v19c0,2.15.86,3,2.24,3s2.24-.77,2.24-3ZM278,142.27h-3.19v-2h-.08a4.65,4.65,0,0,1-4,2.32c-2.75,0-4.05-2.06-4.05-4.48V112.54h3.36v24.3c0,1.55.61,2.76,2.16,2.76s2.32-1.55,2.32-2.76v-24.3h3.36Zm3.79-29.81H285v2h.09a4.61,4.61,0,0,1,4-2.33c2.76,0,4.05,2.07,4.05,4.48v25.59h-3.36v-24.3c0-1.55-.6-2.75-2.15-2.75a2.57,2.57,0,0,0-2.33,2.75v24.3h-3.36Zm27.49-9.66h3.62v4.14h-3.62Zm.17,9.66h3.36v29.72h-3.36Zm7.93-9.66h3.36v39.38h-3.36ZM54.48,154.33H320.91v18.1H54.57Zm0,21.37H320.91v5.52H54.57Z"></path>
</svg>
