<?xml version="1.0" encoding="UTF-8"?>
<svg xmlns="http://www.w3.org/2000/svg" data-name="Silverstone Technology Cluster" viewBox="0 0 351.43 312.02">
  <path d="M117.9 241.68a15.1 15.1 0 007.73 2.57c2 0 3.39-.79 3.39-2.63 0-2.29-2.28-2.5-5.39-3.52-3.35-1.13-6.37-2.8-6.37-7.1 0-4.61 3.42-7.48 8.51-7.48a16.46 16.46 0 017.4 1.77v5.36a15.28 15.28 0 00-7.44-2.39c-1.8 0-3.11.69-3.11 2.33 0 2.18 2.24 2.35 5.16 3.34 3.65 1.23 6.59 3 6.59 7.35 0 4.81-3.58 7.71-8.8 7.71a17.5 17.5 0 01-7.67-1.81zm19.44-17.79h5.32v24.73h-5.32zm9.57 0h5.33v20h10.61v4.75h-15.96zm12.46 0h5.72l3.89 10.86c.8 2.22 1.6 4.51 2.34 6.73h.02c.77-2.25 1.57-4.47 2.41-6.76l4-10.83h5.46l-9.24 24.73h-5.36zm25.81 0h15v4.75h-9.65v4.85h8.31V238h-8.31v5.87h10v4.75h-15.37zm18.62 0h7.54c2.88 0 5.6.41 7.54 1.64a6.4 6.4 0 012.91 5.81 6.87 6.87 0 01-4.92 6.83l6.83 10.45h-6.13l-6.12-9.77h-2.38v9.77h-5.32zm8 10.9a7.45 7.45 0 003.34-.58 2.58 2.58 0 001.38-2.5 2.42 2.42 0 00-1.38-2.42 8.79 8.79 0 00-4-.65h-2v6.15zm13.39 6.89a15.07 15.07 0 007.73 2.57c1.94 0 3.38-.79 3.38-2.63 0-2.29-2.27-2.5-5.39-3.52-3.34-1.13-6.36-2.8-6.36-7.1 0-4.61 3.42-7.48 8.51-7.48a16.46 16.46 0 017.4 1.77v5.36a15.28 15.28 0 00-7.44-2.39c-1.8 0-3.11.69-3.11 2.33 0 2.18 2.24 2.35 5.16 3.34 3.64 1.23 6.59 3 6.59 7.35 0 4.81-3.58 7.71-8.8 7.71a17.5 17.5 0 01-7.67-1.81zm25.54-13h-7.83v-4.79h21v4.75h-7.86v20h-5.33zm14 7.61a12.66 12.66 0 1112.66 12.74 12.46 12.46 0 01-12.65-12.78zm20 0c0-4.37-3.15-7.82-7.33-7.82s-7.33 3.45-7.33 7.82 3.14 7.82 7.33 7.82 7.33-3.48 7.33-7.86zm18.18 2.4a400.45 400.45 0 01-4.55-6.39h-.07c0 2.36.07 4.75.07 7.14v9.19h-5.12v-24.74h5l7.26 10c1.58 2.15 3.05 4.23 4.55 6.38h.07c0-2.36-.07-4.75-.07-7.14v-9.24h5.13v24.73h-5zm16.54-14.76h15v4.75h-9.64v4.85h8.31v4.51h-8.31v5.87h10v4.75h-15.36zm-195.11 36.22h-7.84v-4.76h21v4.75h-7.84v20h-5.32zm15.7-4.75h15v4.75h-9.7V265h8.31v4.51h-8.31v5.88h10v4.75h-15.31zm37.87 23.46a15.28 15.28 0 01-7.1 1.64c-7.8 0-13.19-5.49-13.19-12.7s5.39-12.77 13.19-12.77a15.26 15.26 0 016.73 1.54v5.49a12.16 12.16 0 00-6.7-2.15 7.58 7.58 0 00-7.9 7.82c0 4.41 3.11 7.89 8.1 7.89a12 12 0 006.87-2.29zm3.37-23.47h5.32v9.57h10.48v-9.57h5.32v24.73h-5.32v-10.41H186.6v10.42h-5.32zm35.06 14.77a400.45 400.45 0 01-4.55-6.39h-.07c0 2.36.07 4.75.07 7.14v9.19h-5.12v-24.71h5l7.26 10c1.58 2.16 3 4.24 4.56 6.39h.06c0-2.36-.06-4.75-.06-7.14v-9.25h5.12v24.73h-5zm15.47-2.39a12.66 12.66 0 1112.65 12.73 12.46 12.46 0 01-12.66-12.73zm20 0c0-4.38-3.15-7.82-7.34-7.82s-7.33 3.44-7.33 7.82 3.15 7.82 7.33 7.82 7.32-3.45 7.32-7.82zm8.53-12.38h5.32v20h10.62v4.75h-15.94zm16.88 12.37a12.65 12.65 0 1112.65 12.73 12.46 12.46 0 01-12.7-12.72zm20 0c0-4.38-3.15-7.82-7.33-7.82s-7.33 3.44-7.33 7.82 3.15 7.82 7.33 7.82 7.26-3.44 7.26-7.81zm28.93 10.68a17.44 17.44 0 01-8.24 2.05c-7.76 0-13.22-5.36-13.22-12.63s5.52-12.84 13.26-12.84a15.24 15.24 0 017.43 1.88v5.49a13.17 13.17 0 00-7.33-2.46 7.93 7.93 0 100 15.85 7.88 7.88 0 003-.55v-3.74h-4.22v-4.51h9.38zm10.75-9.49l-9.41-13.56h6.19l3 4.48c.93 1.4 2 3 2.91 4.54h.07c.93-1.5 1.9-3 2.91-4.58l2.91-4.44h6l-9.27 13.53v11.2h-5.32zm-199.45 41.44a15.25 15.25 0 01-7.1 1.64c-7.8 0-13.19-5.49-13.19-12.7s5.39-12.77 13.19-12.77a15.22 15.22 0 016.73 1.54v5.49a12.13 12.13 0 00-6.69-2.15 7.57 7.57 0 00-7.9 7.82c0 4.41 3.11 7.89 8.1 7.89a12 12 0 006.86-2.29zm3.38-23.46h5.33v20h10.61v4.75h-15.94zm39.31 12.74c0 3.72-.5 6.42-1.88 8.4-1.7 2.5-4.82 4-8.7 4s-7-1.46-8.74-4c-1.3-2-1.81-4.67-1.81-8.19v-12.97h5.33v12.67c0 2.63.23 4.24.94 5.4a4.86 4.86 0 004.41 2.15 4.69 4.69 0 004.29-2.05c.74-1.16 1-2.87 1-5.46v-12.71h5.12zm3.72 5.06a15.11 15.11 0 007.73 2.56c1.94 0 3.38-.79 3.38-2.63 0-2.29-2.28-2.49-5.39-3.52-3.35-1.13-6.36-2.8-6.36-7.1 0-4.61 3.41-7.48 8.5-7.48a16.43 16.43 0 017.4 1.77v5.37a15.15 15.15 0 00-7.43-2.39c-1.81 0-3.11.68-3.11 2.32 0 2.18 2.24 2.35 5.15 3.34 3.65 1.23 6.6 3 6.6 7.35 0 4.81-3.59 7.71-8.81 7.71a17.43 17.43 0 01-7.66-1.81zm25.54-13.05h-7.83v-4.75h21v4.75h-7.84v20h-5.32zm15.7-4.75h15v4.75h-9.64v4.85h8.3v4.51h-8.3v5.87h10v4.75H225.1zm18.62 0h7.62c2.88 0 5.59.41 7.53 1.64a6.38 6.38 0 012.91 5.81 6.86 6.86 0 01-4.92 6.83l6.83 10.45h-6.12l-6.13-9.77h-2.4v9.77h-5.32zm8 10.9a7.52 7.52 0 003.35-.58 2.59 2.59 0 001.37-2.5 2.43 2.43 0 00-1.37-2.42 9 9 0 00-4-.65h-2v6.15zm-184-226.61L30.96 34.46l-31 31v41.39h52.12A59.59 59.59 0 0167.75 71.2zm133.13 35.62V74.75l-24.37-24.36-20.85 20.85a59.59 59.59 0 0115.63 35.62zM148.74 71.2a54.7 54.7 0 00-32.18-14.19v33.77a21.32 21.32 0 018.49 4.1zm-74.1 81a54.7 54.7 0 0032.18 14.19V132.6a21.32 21.32 0 01-8.49-4.1zm77.54-77.54L128.5 98.35a21.32 21.32 0 014.1 8.49h33.74a54.7 54.7 0 00-14.16-32.2zm36.77-43.65l-31-31h-41.39v52.12a59.59 59.59 0 0135.62 15.63zM50.34 46.9L71.2 67.75a59.59 59.59 0 0135.62-15.63V22.5H74.75zm6.67 69.66a54.7 54.7 0 0014.19 32.18l23.68-23.69a21.32 21.32 0 01-4.1-8.49zm10.74 35.62a59.59 59.59 0 01-15.63-35.62H22.5v32.08l24.4 24.4zm30.59-57.3a21.32 21.32 0 018.49-4.1V57.01A54.7 54.7 0 0074.65 71.2zm26.72 33.62a21.32 21.32 0 01-8.49 4.1v33.79a54.7 54.7 0 0032.18-14.19zM71.21 74.65a54.67 54.67 0 00-14.19 32.17h33.77a21.32 21.32 0 014.1-8.49zm57.3 50.4l23.68 23.69a54.7 54.7 0 0014.15-32.18H132.6a21.32 21.32 0 01-4.1 8.49zm-94.08 67.34l31 31h41.4v-52.13a59.59 59.59 0 01-35.62-15.63zm82.13-21.13v29.62h32.07l24.4-24.4-20.85-20.85a59.59 59.59 0 01-35.62 15.63zm54.7-54.7a59.57 59.57 0 01-15.63 35.62l36.76 36.77 31-31v-41.4z" fill="#1d1d1b"></path>
</svg>
