<?xml version="1.0" standalone="no"?>
<!DOCTYPE svg PUBLIC "-//W3C//DTD SVG 20010904//EN"
 "http://www.w3.org/TR/2001/REC-SVG-20010904/DTD/svg10.dtd">
<svg version="1.0" xmlns="http://www.w3.org/2000/svg"
 width="1600.000000pt" height="1600.000000pt" viewBox="0 0 1600.000000 1600.000000"
 preserveAspectRatio="xMidYMid meet">
<metadata>
Created by potrace 1.11, written by Peter Selinger 2001-2013
</metadata>
<g transform="translate(0.000000,1600.000000) scale(0.100000,-0.100000)"
fill="#000000" stroke="none">
<path d="M3760 15994 c-19 -2 -91 -9 -160 -15 -665 -57 -1376 -324 -1935 -728
-778 -561 -1329 -1378 -1551 -2300 -42 -171 -78 -380 -96 -551 -17 -162 -17
-618 0 -780 74 -706 328 -1377 731 -1935 579 -802 1417 -1356 2376 -1569 160
-35 373 -69 518 -81 l77 -7 0 2126 0 2126 2126 0 2126 0 -7 78 c-60 701 -321
1403 -734 1977 -566 786 -1398 1343 -2332 1559 -166 38 -345 69 -504 86 -101
11 -571 22 -635 14z"/>
<path d="M11780 15994 c-19 -2 -91 -9 -160 -15 -665 -57 -1376 -324 -1935
-728 -802 -579 -1356 -1417 -1569 -2376 -35 -160 -69 -373 -81 -517 l-7 -78
2136 0 2136 0 0 -2125 0 -2126 68 7 c706 64 1396 321 1967 733 777 559 1329
1378 1551 2300 42 171 78 380 96 551 17 162 17 618 0 780 -74 706 -328 1377
-731 1935 -568 788 -1398 1343 -2332 1559 -166 38 -345 69 -504 86 -101 11
-571 22 -635 14z"/>
<path d="M4330 9854 l0 -1817 84 7 c117 9 347 49 517 90 492 118 977 341 1384
635 778 561 1329 1378 1551 2300 41 170 81 400 90 517 l7 84 -1817 0 -1816 0
0 -1816z"/>
<path d="M8044 11586 c9 -117 49 -347 90 -517 118 -492 341 -977 635 -1384
561 -778 1378 -1329 2300 -1551 161 -39 389 -79 501 -89 41 -3 85 -8 98 -11
l22 -4 0 1820 0 1820 -1826 0 -1827 0 7 -84z"/>
<path d="M3570 7959 c-670 -70 -1357 -332 -1905 -728 -778 -561 -1329 -1378
-1551 -2300 -42 -171 -78 -380 -96 -551 -17 -162 -17 -618 0 -780 74 -706 328
-1377 731 -1935 561 -778 1378 -1329 2300 -1551 171 -42 380 -78 551 -96 162
-17 618 -17 780 0 706 74 1377 328 1935 731 802 579 1356 1417 1569 2376 34
153 67 364 80 508 l7 67 -2126 0 -2125 0 0 2135 0 2135 -32 -1 c-18 -1 -71 -6
-118 -10z"/>
<path d="M11590 7959 c-670 -70 -1357 -332 -1905 -728 -778 -561 -1329 -1378
-1551 -2300 -39 -161 -79 -389 -89 -501 -3 -41 -8 -85 -11 -97 l-4 -23 1830 0
1830 0 0 1830 c0 1007 -3 1829 -7 1829 -5 -1 -46 -6 -93 -10z"/>
<path d="M12300 5835 l0 -2135 -2135 0 -2136 0 7 -67 c64 -707 321 -1397 733
-1968 559 -777 1378 -1329 2300 -1551 171 -42 380 -78 551 -96 162 -17 618
-17 780 0 706 74 1377 328 1935 731 778 561 1329 1378 1551 2300 42 171 78
380 96 551 17 162 17 618 0 780 -74 706 -328 1377 -731 1935 -579 802 -1417
1356 -2376 1569 -153 34 -364 67 -507 80 l-68 7 0 -2136z"/>
<path d="M4330 6136 l0 -1826 1820 0 1820 0 -4 23 c-3 12 -8 56 -11 97 -10
112 -50 340 -89 501 -118 492 -341 977 -635 1384 -561 778 -1378 1329 -2300
1551 -170 41 -400 81 -517 90 l-84 7 0 -1827z"/>
</g>
</svg>
